<?xml version="1.0" encoding="UTF-8" standalone="no"?> <!-- Created with Vectornator for iOS (http://vectornator.io/) --><!DOCTYPE svg PUBLIC "-//W3C//DTD SVG 1.1//EN" "http://www.w3.org/Graphics/SVG/1.1/DTD/svg11.dtd">
<svg height="100%" style="fill-rule:evenodd;clip-rule:evenodd;stroke-linecap:round;stroke-linejoin:round;" xmlns:xlink="http://www.w3.org/1999/xlink" xmlns="http://www.w3.org/2000/svg" xml:space="preserve" width="100%" xmlns:vectornator="http://vectornator.io" version="1.1" viewBox="0 0 550 160">
<metadata>
<vectornator:setting key="RulersVisible" value="1"/>
<vectornator:setting key="Units" value="Points"/>
<vectornator:setting key="DynamicGuides" value="1"/>
<vectornator:setting key="GuidesVisible" value="1"/>
<vectornator:setting key="CMYKEnabledKey" value="0"/>
<vectornator:setting key="SnapToGuides" value="1"/>
<vectornator:setting key="GridSpacing" value="36"/>
</metadata>
<defs/>
<g id="Layer 1" vectornator:layerName="Layer 1">
<path d="M81.1074+51.4302C45.761+52.2273+14.3254+57.6149+3.45665+61.3587C15.4326+117.884+34.4496+133.883+47.2979+150.234C52.1878+156.457+58.7196+156.395+59.8403+149.936C66.6624+110.617+77.0065+78.478+86.8856+61.2785C89.1902+57.2664+90.4757+51.2189+81.1074+51.4302ZM51.1729+61.5304C58.1063+61.4353+64.8233+61.5105+70.4108+61.874C63.336+72.2808+51.3043+115.697+48.2265+129.827C29.7087+115.719+7.62982+63.6146+7.62982+63.6146C7.62983+63.6146+30.3729+61.8157+51.1729+61.5304Z" fill-rule="evenodd" fill="#9a4ead" opacity="1"/>
<path d="M27.5975+21.5153C24.4148+32.6749+34.7321+38.0651+39.945+38.2957C46.1243+38.569+55.0976+34.296+55.0122+25.4937C54.9267+16.6913+46.3894+12.2698+40.6905+12.0309C36.4639+11.8538+30.6418+14.2092+26.6006+19.911C26.7115+14.8348+31.1974+4.48214+44.8417+5.05596C62.7687+5.8099+66.7879+20.4639+66.6222+27.5904C66.4547+34.7947+59.7145+53.8073+37.972+49.5698C19.7303+46.0145+20.0427+29.7221+23.4772+24.7908C24.551+23.2491+26.2277+21.4347+27.5975+21.5153Z" fill-rule="evenodd" fill="#9a4ead" opacity="1"/>
<path d="M103.621+51.2844C102.831+58.2565+107.58+59.715+111.259+59.6706C114.937+59.6261+119.777+57.5123+120.546+51.8539C121.314+46.1956+116.211+43.4085+113.042+43.4473C109.872+43.4862+105.864+44.8448+102.702+49.0081C103.252+45.8539+105.864+37.38+117.817+37.9873C125.392+38.3723+131.313+44.9139+130.596+52.9642C129.879+61.0145+124.016+70.975+111.2+70.4931C98.3853+70.0112+97.4172+56.6275+100.887+53.3131C101.868+52.3758+101.748+52.2456+103.621+51.2844Z" fill-rule="evenodd" fill="#9a4ead" opacity="1"/>
<path d="M105.03+74.7524C102.29+74.7585+99.8181+74.8496+97.6195+74.9838C93.963+75.2069+91.0617+75.5491+88.9338+75.8174C88.2762+104.346+89.3148+103.752+86.489+132.199C86.0044+137.078+90.7192+138.308+94.4506+135.093C113.178+118.958+128.829+96.9377+135.263+84.7954C136.621+82.2317+136.336+77.9827+132.58+77.3061C121.534+75.3159+112.329+74.7361+105.03+74.7524ZM93.6973+80.5025C93.6973+80.5025+113.626+83.4831+119.701+86.6282C115.633+96.9908+104.329+111.961+97.7821+118.937C97.2914+103.239+93.6973+80.5025+93.6973+80.5025Z" fill-rule="evenodd" fill="#9a4ead" opacity="1"/>
<g opacity="1">
<path d="M273.269+136.857C265.55+136.857+258.835+134.86+253.125+130.867C247.415+126.873+242.98+121.153+239.82+113.705C236.66+106.256+235.08+97.314+235.08+86.877C235.08+76.097+236.716+67.0443+239.989+59.7188C243.262+52.3932+247.776+46.8563+253.532+43.1078C259.287+39.3592+265.866+37.485+273.269+37.485C283.517+37.485+291.518+40.18+297.274+45.57C303.029+50.96+306.719+57.967+308.344+66.591L291.281+69.972C289.881+64.974+287.647+60.9315+284.577+57.8445C281.507+54.7575+277.738+53.214+273.269+53.214C269.342+53.214+265.798+54.4512+262.638+56.9258C259.478+59.4003+256.962+63.1365+255.089+68.1345C253.216+73.1325+252.279+79.38+252.279+86.877C252.279+93.933+253.102+100.009+254.751+105.105C256.398+110.201+258.779+114.121+261.894+116.865C265.009+119.609+268.801+120.981+273.269+120.981C279.002+120.981+283.437+119.327+286.575+116.02C289.712+112.712+291.281+108.486+291.281+103.341L308.344+103.341C308.344+110.446+306.934+116.485+304.112+121.459C301.291+126.432+297.262+130.242+292.025+132.888C286.789+135.534+280.537+136.857+273.269+136.857Z" fill-rule="evenodd" fill="#9a4ead" opacity="1"/>
<path d="M323.937+39.396L339.884+39.396L339.884+79.233L378.131+79.233L378.131+39.396L394.078+39.396L394.078+134.799L378.131+134.799L378.131+94.374L339.884+94.374L339.884+134.799L323.937+134.799L323.937+39.396Z" fill-rule="evenodd" fill="#9a4ead" opacity="1"/>
<path d="M412.825+134.799L412.825+39.396L468.878+39.396L468.878+54.39L428.686+54.39L428.686+79.527L466.458+79.527L466.458+94.521L428.686+94.521L428.686+119.658L468.878+119.658L468.878+134.799L412.825+134.799Z" fill-rule="evenodd" fill="#9a4ead" opacity="1"/>
<path d="M485.207+134.799L485.207+39.396L541.422+39.396L541.422+54.39L501.426+54.39L501.426+79.527L537.986+79.527L537.986+94.374L501.426+94.374L501.426+134.799L485.207+134.799Z" fill-rule="evenodd" fill="#9a4ead" opacity="1"/>
</g>
<path d="M210.908+39.396L232.663+39.396L175.188+103.782L175.188+80.115L210.908+39.396Z" opacity="1" fill="#9a4ead"/>
<path d="M191.571+78.792L235.08+134.799L214.668+134.799L180.56+90.111L191.571+78.792Z" opacity="1" fill="#9a4ead"/>
<path d="M160.551+39.396L176.531+39.396L176.531+134.799L160.551+134.799L160.551+39.396Z" opacity="1" fill="#9a4ead"/>
</g>
</svg>
